<?xml version="1.0" standalone="no"?><!DOCTYPE svg PUBLIC "-//W3C//DTD SVG 1.1//EN" "http://www.w3.org/Graphics/SVG/1.1/DTD/svg11.dtd"><svg t="1525353209426" class="icon" style="" viewBox="0 0 1024 1024" version="1.1" xmlns="http://www.w3.org/2000/svg" p-id="8877" xmlns:xlink="http://www.w3.org/1999/xlink" width="200" height="200"><defs><style type="text/css"></style></defs><path d="M513.37728 90.73664c-71.7056 0-129.83808 58.12736-129.83808 129.83808 0 71.7056 58.12736 129.83808 129.83808 129.83808 71.7056 0 129.83808-58.12736 129.83808-129.83808-0.00512-71.71072-58.13248-129.83808-129.83808-129.83808z m0 236.57984c-58.95168 0-106.74688-47.79008-106.74688-106.74688 0-58.95168 47.79008-106.74688 106.74688-106.74688 58.95168 0 106.74688 47.79008 106.74688 106.74688-0.00512 58.9568-47.7952 106.74688-106.74688 106.74688z" fill="#FFFFFF" p-id="8878"></path><path d="M513.37728 358.50752c-76.0576 0-137.93792-61.88032-137.93792-137.93792s61.8752-137.93792 137.93792-137.93792S651.3152 144.50688 651.3152 220.5696s-61.88032 137.93792-137.93792 137.93792z m0-259.67104c-67.1232 0-121.73312 54.60992-121.73312 121.73312s54.60992 121.73824 121.73312 121.73824 121.73312-54.60992 121.73312-121.73824-54.60992-121.73312-121.73312-121.73312z m0 236.58496c-63.32928 0-114.84672-51.52256-114.84672-114.84672S450.048 105.72288 513.37728 105.72288 628.224 157.24032 628.224 220.5696s-51.52256 114.85184-114.84672 114.85184z m0-213.49376c-54.39488 0-98.64192 44.25216-98.64192 98.64192s44.25216 98.64704 98.64192 98.64704 98.64192-44.25216 98.64192-98.64704-44.25216-98.64192-98.64192-98.64192z" fill="#1D1E21" p-id="8879"></path><path d="M692.72576 927.9488H334.02368c-57.35424 0-104.27904-46.9248-104.27904-104.27904V488.35584c0-155.60192 127.31392-282.91584 282.91584-282.91584 156.3904 0 284.34432 127.95392 284.34432 284.34432v333.88544c0 57.35424-46.9248 104.27904-104.27904 104.27904z" fill="#FFFFFF" p-id="8880"></path><path d="M692.72576 936.04864H334.02368c-61.96736 0-112.37888-50.41152-112.37888-112.37888V488.35584c0-160.46592 130.54976-291.01568 291.01568-291.01568 161.25952 0 292.44928 131.18976 292.44928 292.44416v333.88544c0 61.96736-50.41664 112.37888-112.384 112.37888zM512.66048 213.53984c-151.53152 0-274.816 123.27936-274.816 274.816v335.31392c0 53.03296 43.14624 96.17408 96.1792 96.17408h358.70208c53.03296 0 96.1792-43.14112 96.1792-96.17408V489.78432c0-152.32-123.92448-276.24448-276.24448-276.24448z" fill="#1D1E21" p-id="8881"></path><path d="M575.0784 490.0608H455.6544c-23.53664 0-42.79296-19.25632-42.79296-42.79296s19.25632-42.79296 42.79296-42.79296h119.424c23.53664 0 42.79296 19.25632 42.79296 42.79296s-19.25632 42.79296-42.79296 42.79296z" fill="#FFFFFF" p-id="8882"></path><path d="M575.0784 498.16576H455.6544c-28.06272 0-50.8928-22.83008-50.8928-50.8928s22.83008-50.8928 50.8928-50.8928h119.424c28.0576 0 50.8928 22.83008 50.8928 50.8928s-22.8352 50.8928-50.8928 50.8928zM455.6544 412.57984c-19.12832 0-34.69312 15.55968-34.69312 34.69312s15.55968 34.69312 34.69312 34.69312h119.424c19.12832 0 34.688-15.55968 34.688-34.69312s-15.55968-34.69312-34.688-34.69312H455.6544z" fill="#1D1E21" p-id="8883"></path><path d="M306.4064 521.9072a223.98464 223.98464 0 0 1-1.28512-23.86432c0-122.00448 88.10496-210.10944 210.10944-210.10944s210.10944 88.10496 210.10944 210.10944c0 8.064-0.44544 16.0256-1.28512 23.86432h31.7184c0.75776-7.808 1.15712-15.72352 1.15712-23.72608 0-134.1696-108.76928-242.93888-242.93888-242.93888s-242.944 108.76928-242.944 242.93888c0 8.00768 0.39936 15.91808 1.15712 23.72608h34.2016z" fill="#FFFFFF" p-id="8884"></path><path d="M755.77344 530.01216h-31.7184a8.09472 8.09472 0 0 1-8.05376-8.96c0.82432-7.70048 1.23904-15.4368 1.23904-23.00416 0-117.05344-84.95616-202.00448-202.0096-202.00448S313.22112 380.99456 313.22112 498.04288c0 7.61344 0.41472 15.34976 1.23904 22.99904a8.09984 8.09984 0 0 1-8.05376 8.96512h-34.20672a8.10496 8.10496 0 0 1-8.064-7.31648 254.2592 254.2592 0 0 1-1.19296-24.51456c0-138.42432 112.61952-251.04384 251.04384-251.04384 138.42944 0 251.04384 112.61952 251.04384 251.04384 0 8.06912-0.39936 16.31232-1.19296 24.50432a8.10496 8.10496 0 0 1-8.064 7.33184z m-22.88128-16.2048h15.4112c0.34816-5.24288 0.52224-10.47552 0.52224-15.62624 0-129.48992-105.34912-234.83904-234.83904-234.83904S279.14752 368.6912 279.14752 498.18112c0 5.1712 0.17408 10.39872 0.52224 15.62624h17.8944a229.35552 229.35552 0 0 1-0.54272-15.76448c0-126.4384 91.77088-218.20928 218.20928-218.20928s218.20928 91.77088 218.20928 218.20928c0 5.20192-0.18432 10.47552-0.54784 15.76448z" fill="#1D1E21" p-id="8885"></path><path d="M679.83872 711.9872H368.68096c-40.448 0-73.53856 33.09568-73.53856 73.53856v134.83008a103.2448 103.2448 0 0 0 38.8864 7.59296h358.70208c16.87552 0 32.82944-4.08576 46.97088-11.28448v-131.13856c-0.00512-40.448-19.41504-73.53856-59.86304-73.53856z" fill="#FFFFFF" p-id="8886"></path><path d="M692.72576 936.04864H334.02368c-14.42816 0-28.53376-2.75456-41.92768-8.18688a8.09472 8.09472 0 0 1-5.05856-7.50592v-134.83008c0-45.01504 36.62336-81.6384 81.64352-81.6384h311.16288c41.28256 0 67.95776 32.04608 67.95776 81.6384v131.13856c0 3.0464-1.71008 5.8368-4.42368 7.2192a110.7456 110.7456 0 0 1-50.65216 12.16512z m-389.48864-21.31456c9.92256 3.39456 20.25472 5.10976 30.78656 5.10976h358.70208c13.52704 0 26.58304-2.78528 38.87104-8.28416v-126.03392c0-31.63648-13.59872-65.43872-51.75808-65.43872H368.68096c-36.08576 0-65.43872 29.35808-65.43872 65.43872v129.20832h-0.00512z" fill="#1D1E21" p-id="8887"></path></svg>